<svg width="185" height="185" viewBox="0 0 185 185" fill="none" xmlns="http://www.w3.org/2000/svg">
<path d="M179.5 92.6446C179.5 140.185 140.361 178.789 92 178.789C43.6392 178.789 4.5 140.185 4.5 92.6446C4.5 45.1039 43.6392 6.5 92 6.5C140.361 6.5 179.5 45.1039 179.5 92.6446Z" fill="white" stroke="#A2D2FF" stroke-width="5"/>
<path fill-rule="evenodd" clip-rule="evenodd" d="M82.2531 18.0269C84.3817 18.5034 85.4459 18.7416 85.5383 19.4326C85.6308 20.1236 84.5879 20.6747 82.5023 21.7768C70.9408 27.8862 63.1712 39.2449 63.1712 52.2481C63.1712 65.2512 70.9408 76.6099 82.5023 82.7193C84.5879 83.8214 85.6308 84.3725 85.5383 85.0635C85.4459 85.7545 84.3817 85.9927 82.2531 86.4692C79.2556 87.1401 76.1211 87.4961 72.8949 87.4961C51.4138 87.4961 34 71.715 34 52.2481C34 32.7811 51.4138 17 72.8949 17C76.1211 17 79.2556 17.356 82.2531 18.0269Z" fill="#F8FF60"/>
<path d="M82.5023 82.7193L82.7826 82.1888L82.5023 82.7193ZM82.2531 86.4692L82.1221 85.8836L82.2531 86.4692ZM85.5383 85.0635L86.133 85.143L85.5383 85.0635ZM82.2531 18.0269L82.1221 18.6125L82.2531 18.0269ZM85.5383 19.4326L86.133 19.3531L85.5383 19.4326ZM63.7712 52.2481C63.7712 39.4969 71.3901 28.3274 82.7826 22.3073L82.222 21.2463C70.4914 27.4451 62.5712 38.9929 62.5712 52.2481H63.7712ZM82.7826 82.1888C71.3901 76.1687 63.7712 64.9992 63.7712 52.2481H62.5712C62.5712 65.5032 70.4914 77.051 82.222 83.2498L82.7826 82.1888ZM82.1221 85.8836C79.1674 86.545 76.0769 86.8961 72.8949 86.8961V88.0961C76.1653 88.0961 79.3437 87.7352 82.3842 87.0547L82.1221 85.8836ZM72.8949 86.8961C51.6882 86.8961 34.6 71.3294 34.6 52.2481H33.4C33.4 72.1006 51.1394 88.0961 72.8949 88.0961V86.8961ZM34.6 52.2481C34.6 33.1667 51.6882 17.6 72.8949 17.6V16.4C51.1394 16.4 33.4 32.3955 33.4 52.2481H34.6ZM72.8949 17.6C76.0769 17.6 79.1674 17.9511 82.1221 18.6125L82.3842 17.4414C79.3438 16.7609 76.1653 16.4 72.8949 16.4V17.6ZM82.222 83.2498C83.2816 83.8098 84.0202 84.2015 84.4898 84.5348C84.7231 84.7004 84.8463 84.8221 84.9063 84.907C84.9335 84.9455 84.941 84.9673 84.9429 84.9739C84.9441 84.9782 84.9442 84.9794 84.9436 84.9839L86.133 85.143C86.2297 84.4203 85.6944 83.9183 85.1844 83.5563C84.6343 83.1658 83.8086 82.731 82.7826 82.1888L82.222 83.2498ZM82.3842 87.0547C83.4285 86.8209 84.2781 86.6323 84.8714 86.408C85.4374 86.1941 86.0385 85.8501 86.133 85.143L84.9436 84.9839C84.9427 84.9909 84.9447 85.0088 84.8917 85.0548C84.8235 85.1141 84.6912 85.1933 84.4471 85.2855C83.9531 85.4722 83.2062 85.641 82.1221 85.8836L82.3842 87.0547ZM82.7826 22.3073C83.8086 21.7651 84.6343 21.3303 85.1844 20.9398C85.6944 20.5778 86.2297 20.0758 86.133 19.3531L84.9436 19.5122C84.9442 19.5167 84.9441 19.5179 84.9429 19.5222C84.941 19.5288 84.9335 19.5506 84.9063 19.5891C84.8463 19.674 84.7231 19.7957 84.4898 19.9613C84.0202 20.2946 83.2816 20.6863 82.222 21.2463L82.7826 22.3073ZM82.1221 18.6125C83.2062 18.8551 83.9531 19.0239 84.4471 19.2106C84.6912 19.3028 84.8235 19.382 84.8917 19.4413C84.9447 19.4873 84.9427 19.5052 84.9436 19.5122L86.133 19.3531C86.0385 18.646 85.4374 18.302 84.8714 18.0881C84.2781 17.8638 83.4286 17.6752 82.3842 17.4414L82.1221 18.6125Z" fill="white"/>
<g clip-path="url(#clip0_101_2)">
<path d="M26.6357 137.063C26.6357 141.308 35.6351 144.749 46.7366 144.749C57.8381 144.749 66.8375 141.308 66.8375 137.063C66.8375 132.818 57.8381 129.377 46.7366 129.377C35.6351 129.376 26.6357 132.818 26.6357 137.063Z" fill="#E26969"/>
<path d="M47.2552 146.048C36.8815 146.048 25.8554 142.899 25.8554 137.063C25.8554 131.227 36.8815 128.078 47.2552 128.078C57.6289 128.078 68.6549 131.226 68.6549 137.063C68.6549 142.899 57.6295 146.048 47.2552 146.048ZM47.2552 130.675C35.6062 130.675 28.4531 134.395 28.4531 137.062C28.4531 139.73 35.6062 143.45 47.2552 143.45C58.9041 143.45 66.0572 139.73 66.0572 137.062C66.0572 134.395 58.9041 130.675 47.2552 130.675Z" fill="#4C2F1B"/>
<path d="M62.628 129.529C62.1707 129.529 61.7434 129.407 61.4081 129.132C60.7982 128.675 60.4929 127.912 60.6456 127.088L62.354 116.352C62.5066 115.467 63.0859 114.674 63.9092 114.277C64.3971 114.033 66.9901 112.874 69.4305 112.874C70.8943 112.874 72.0841 113.271 72.9381 114.094C74.4938 115.558 74.7991 118.09 73.8226 121.628C72.4807 126.448 70.4983 127.302 67.3867 128.125C66.3802 128.4 65.1603 128.705 63.5739 129.345L63.2992 129.437C63.0859 129.498 62.8419 129.529 62.628 129.529ZM65.9223 123.764C66.2882 123.673 66.6542 123.581 66.9595 123.52C68.9726 123.032 68.9726 123.032 69.5825 120.928C70.1924 118.762 69.9485 117.939 69.8265 117.817C69.8265 117.817 69.6738 117.695 69.1552 117.695C68.576 117.695 67.7214 117.877 66.8369 118.183L65.9223 123.764Z" fill="#F96B6B"/>
<path d="M69.4305 113.881C70.4983 113.881 71.5349 114.125 72.2668 114.827C73.548 116.016 73.7613 118.213 72.8774 121.385C71.6262 125.808 70.0098 126.448 67.1121 127.18C66.1056 127.455 64.8244 127.79 63.1773 128.431C63.116 128.461 63.0553 128.461 63.0246 128.492C62.9026 128.523 62.75 128.553 62.628 128.553C62.384 128.553 62.1707 128.492 61.9874 128.34C61.6828 128.096 61.5301 127.699 61.5908 127.242L63.2992 116.505C63.3906 115.926 63.7872 115.407 64.3058 115.163C64.7024 114.979 67.1728 113.881 69.4305 113.881ZM64.733 125.106C65.7089 124.8 66.5022 124.618 67.2034 124.465C69.6132 123.886 69.7658 123.855 70.5284 121.202C70.9556 119.738 71.2603 117.816 70.4671 117.114C70.1618 116.839 69.7045 116.748 69.1553 116.748C68.1793 116.748 66.9282 117.114 65.983 117.48L64.733 125.106ZM69.4305 111.959C66.7768 111.959 64.0011 113.18 63.4825 113.454C62.3846 113.972 61.5608 115.04 61.3781 116.26L59.6702 126.997C59.4876 128.156 59.9142 129.315 60.8294 129.986C61.348 130.352 61.958 130.565 62.6286 130.565C62.9339 130.565 63.2391 130.535 63.5438 130.443C63.6658 130.413 63.7878 130.382 63.9098 130.321C65.4349 129.711 66.6554 129.406 67.6006 129.162C70.9562 128.277 73.2433 127.332 74.7384 121.994C75.8363 118.089 75.4403 115.222 73.5792 113.483C72.5415 112.447 71.1383 111.959 69.4305 111.959ZM67.692 118.914C68.1799 118.761 68.6372 118.67 69.0038 118.67C69.0038 119.005 68.9425 119.646 68.6378 120.683C68.5158 121.08 68.2719 121.933 68.1192 122.208C67.9366 122.299 67.5394 122.391 67.1127 122.483L67.692 118.914Z" fill="#4C2F1B"/>
<path d="M66.3495 115.894L47.4991 116.23H28.3741C28.3741 116.23 26.971 138.313 47.4991 138.313C68.0273 138.313 66.3495 115.894 66.3495 115.894Z" fill="#FF7171"/>
<path d="M47.3795 139.612C41.2147 139.612 36.3057 137.706 32.7875 133.948C27.0659 127.852 26.8749 118.863 26.9527 116.253L26.9557 116.138C27.004 115.471 27.575 114.931 28.2545 114.931H47.3795C47.3795 114.931 66.2063 114.595 66.2069 114.595C66.9347 114.595 67.481 115.111 67.5299 115.795C67.6054 116.945 68.0892 127.214 61.8484 133.95C58.359 137.707 53.4907 139.612 47.3795 139.612ZM29.5534 117.856C29.6388 120.618 30.3112 127.544 34.7034 132.187C37.7195 135.39 41.9944 137.014 47.4096 137.014C52.7552 137.014 56.9694 135.399 59.9343 132.216C64.327 127.478 64.934 120.379 64.9912 117.548L64.9976 117.218L47.4343 117.529H29.5434L29.5534 117.856Z" fill="#4C2F1B"/>
<path d="M28.1302 116.565C28.1302 121.754 36.6929 125.96 47.2552 125.96C57.8175 125.96 66.3802 121.754 66.3802 116.565C66.3802 111.377 57.818 107.171 47.2552 107.171C36.6929 107.171 28.1302 111.377 28.1302 116.565Z" fill="#D6E6EA"/>
<path d="M28.1302 116.565C28.1302 121.754 36.6929 125.96 47.2552 125.96C57.8175 125.96 66.3802 121.754 66.3802 116.565C66.3802 111.377 57.818 107.171 47.2552 107.171C36.6929 107.171 28.1302 111.377 28.1302 116.565Z" fill="#FCDCD6"/>
<path d="M46.9505 111.837C38.1656 111.837 31.9436 114.888 29.5033 118.335C29.7779 123.489 36.885 125.96 47.2858 125.96C56.8633 125.96 63.6658 124.496 65.099 119.921C63.6352 115.833 56.7414 111.837 46.9505 111.837Z" fill="#724E3B"/>
<path d="M47.2552 127.259C35.8025 127.259 26.8313 122.562 26.8313 116.565C26.8313 110.569 35.8025 105.872 47.2552 105.872C58.7079 105.872 67.679 110.569 67.679 116.565C67.679 122.562 58.7079 127.259 47.2552 127.259ZM47.2552 108.469C36.5921 108.469 29.429 112.655 29.429 116.565C29.429 120.395 36.7501 124.661 47.2552 124.661C57.7603 124.661 65.0807 120.394 65.0807 116.565C65.0813 112.655 57.9182 108.469 47.2552 108.469Z" fill="#4C2F1B"/>
<path d="M35.1153 119.463C35.1153 119.463 42.741 118.822 44.2962 118.487C45.8214 118.151 48.5057 118.213 50.2442 118.151C51.9826 118.091 57.4733 118.792 57.4733 118.792C57.4733 118.792 51.7086 118.883 51.4646 118.792C51.2207 118.701 45.3641 119.554 45.3641 119.554L35.1153 119.463ZM35.9698 116.413C35.9698 116.413 40.1787 114.156 41.7044 113.85C43.2296 113.515 45.9133 113.576 47.6524 113.515C49.3908 113.454 52.899 113.881 52.899 113.881C52.899 113.881 49.1168 114.247 48.8728 114.156C48.6289 114.064 43.5955 115.468 43.5955 115.468L35.9698 116.413ZM42.3444 123.153C42.3444 123.153 44.4489 123.031 45.974 122.696C47.4992 122.361 50.1835 122.421 51.9219 122.361C53.6604 122.33 54.9722 122.086 54.9722 122.086C54.9722 122.086 53.2945 122.788 52.7759 122.971C52.5319 123.062 48.7803 123.673 48.7803 123.673L42.3444 123.153Z" fill="#9B6F5C"/>
<path d="M41.2766 104.639C41.0633 104.639 40.8193 104.548 40.636 104.395C40.2394 104.029 40.1781 103.418 40.5447 103.022C41.7339 101.681 41.3379 100.613 41.0326 100.125C40.9413 99.9721 40.7886 99.8195 40.636 99.6368C39.9041 98.7522 38.5009 97.1358 40.4227 94.5428C40.7279 94.1155 41.3379 94.0242 41.7645 94.3294C42.1918 94.6341 42.2831 95.2441 41.9779 95.6713C40.9713 97.0438 41.3986 97.5324 42.0999 98.3556C42.2825 98.569 42.4658 98.7829 42.6185 99.0269C43.0151 99.6368 44.1436 101.803 41.9779 104.273C41.8258 104.517 41.5512 104.639 41.2766 104.639Z" fill="#4C2F1B"/>
<path d="M48.3537 102.321C48.1403 102.321 47.8958 102.229 47.7131 102.077C47.3165 101.711 47.2558 101.101 47.6217 100.704C48.8116 99.3622 48.4149 98.2943 48.1097 97.8064C48.0183 97.6538 47.8657 97.5017 47.7131 97.3184C46.9811 96.4339 45.578 94.8168 47.4997 92.2244C47.805 91.7972 48.4149 91.7058 48.8416 92.0111C49.2689 92.3163 49.3602 92.9263 49.0549 93.3535C48.0484 94.726 48.4751 95.214 49.1769 96.0379C49.3596 96.2512 49.5429 96.4651 49.6955 96.7091C50.0921 97.319 51.2207 99.4848 49.0549 101.955C48.9023 102.229 48.6277 102.321 48.3537 102.321Z" fill="#4C2F1B"/>
<path d="M55.4301 104.639C55.2168 104.639 54.9728 104.548 54.7895 104.395C54.3929 104.029 54.3317 103.418 54.6976 103.022C55.8874 101.681 55.4908 100.613 55.1856 100.125C55.0942 99.9721 54.9416 99.8195 54.789 99.6368C54.057 98.7522 52.6539 97.1358 54.5756 94.5428C54.8809 94.1155 55.4908 94.0242 55.9181 94.3294C56.3453 94.6341 56.4367 95.2441 56.1314 95.6713C55.1249 97.0438 55.5515 97.5324 56.2534 98.3556C56.4361 98.569 56.6194 98.7829 56.772 99.0269C57.1686 99.6368 58.2971 101.803 56.1314 104.273C55.9788 104.517 55.7048 104.639 55.4301 104.639Z" fill="#4C2F1B"/>
<path d="M47.5604 129.071C45.8827 129.133 44.5714 130.536 44.1442 131.756C43.473 133.677 44.6928 134.775 45.7607 134.775C46.4319 134.775 47.2245 133.677 46.9198 132.64C46.4013 130.992 48.9329 129.01 47.5604 129.071ZM47.5604 134.958C49.2382 134.897 50.4274 133.494 50.8547 132.274C51.5259 130.352 50.306 129.254 49.1463 129.254C48.719 129.254 47.8044 129.803 48.0784 131.389C48.3837 133.097 46.1879 135.019 47.5604 134.958Z" fill="white"/>
</g>
<g clip-path="url(#clip1_101_2)">
<path d="M78.4682 75.852V116.469C78.4682 125.739 97.4283 133.241 120.734 133.241C144.104 133.241 163 125.739 163 116.469V75.852H78.4682Z" fill="#FFE7B8"/>
<path d="M79.854 110.736C79.854 110.736 89.7442 101.832 97.113 110.736C104.483 119.64 109.9 120.006 118.341 116.53C126.72 113.053 131.128 106.527 139.191 112.26C148.135 118.603 152.734 119.517 160.419 111.162V105.368L150.277 109.272L136.672 105.368L123.066 107.38L110.972 112.442L91.571 101.403L79.1617 105.369L79.854 110.736Z" fill="#F9CC91"/>
<path d="M120.736 136.289C98.6885 136.289 75.2568 129.398 75.2568 116.773V76.8884C75.2568 75.1805 76.6426 73.778 78.4694 73.778H163.066C164.83 73.778 166.278 75.1197 166.278 76.8884V116.712C166.214 129.398 142.781 136.289 120.736 136.289ZM81.6179 79.9987V116.773C81.6179 123.055 98.3744 130.129 120.736 130.129C143.097 130.129 159.853 123.055 159.853 116.773V79.9987H81.6179Z" fill="#4C2F1B"/>
<path d="M78.4682 105.857C78.4682 105.857 89.0507 97.2583 96.7348 102.868C104.42 108.48 105.679 115.187 114.94 112.077C124.199 108.966 130.246 97.9274 146.121 109.393C154.309 115.309 163.002 100.55 163.002 95.7926V78.7178H78.4682V105.857Z" fill="#FF6464"/>
<path d="M79.1617 94.2088C79.1617 95.4885 80.0351 96.526 81.1141 96.526C82.192 96.526 83.0666 95.4885 83.0666 94.2088C83.0666 92.9291 82.1932 91.8915 81.1141 91.8915C80.0351 91.8915 79.1617 92.9279 79.1617 94.2088Z" fill="#FFDEC7"/>
<path d="M110.657 115.981C105.68 115.981 102.783 112.993 99.9486 110.066C98.4372 108.481 96.8617 106.895 94.7836 105.37C89.3033 101.345 80.5475 108.176 80.4218 108.236C79.477 109.029 78.1541 109.151 77.0208 108.663C75.8851 108.114 75.1928 107.016 75.1928 105.857V78.7178C75.1928 77.01 76.5786 75.6075 78.4054 75.6075H163.002C164.766 75.6075 166.214 76.9492 166.214 78.7178V95.7938C166.214 100.246 161.301 109.577 154.813 112.809C151.222 114.578 147.443 114.211 144.23 111.955C134.214 104.697 129.364 107.625 123.317 111.284C121.05 112.686 118.719 114.149 115.947 115.064C113.995 115.676 112.231 115.981 110.657 115.981ZM90.8147 97.9286C93.3978 97.9286 96.1694 98.6608 98.6885 100.429C101.208 102.259 103.034 104.15 104.673 105.796C108.138 109.334 109.398 110.675 113.995 109.151C116.012 108.42 118.027 107.26 120.043 106.041C126.531 102.078 134.594 97.1367 148.2 106.955C149.46 107.87 150.594 107.931 152.105 107.2C156.388 105.126 159.979 97.8689 159.979 95.7341V81.8282H81.6179V100.308C84.137 99.027 87.3508 97.9286 90.8147 97.9286Z" fill="#4C2F1B"/>
<path d="M78.4682 78.0476C78.4682 85.6601 97.3914 91.8307 120.734 91.8307C144.077 91.8307 163 85.6601 163 78.0476C163 70.4351 144.079 64.2645 120.736 64.2645C97.3926 64.2645 78.4682 70.4351 78.4682 78.0476Z" fill="#FF7171"/>
<path d="M120.736 94.9398C98.1847 94.9398 75.2568 89.1461 75.2568 78.1084C75.2568 67.0695 98.1859 61.2149 120.736 61.2149C143.286 61.2149 166.214 67.0087 166.214 78.0476C166.214 89.0853 143.285 94.9398 120.736 94.9398ZM120.736 67.314C96.8617 67.314 81.6179 73.6563 81.6179 77.9867C81.6179 82.3171 96.7989 88.7203 120.736 88.7203C144.609 88.7203 159.853 82.378 159.853 78.0476C159.853 73.6563 144.545 67.314 120.736 67.314Z" fill="#4C2F1B"/>
<path d="M108.64 100.308C108.64 101.136 109.097 101.901 109.838 102.315C110.578 102.729 111.491 102.729 112.231 102.315C112.971 101.901 113.428 101.136 113.428 100.308C113.428 99.4801 112.971 98.7145 112.231 98.3006C111.491 97.8868 110.578 97.8868 109.838 98.3006C109.097 98.7145 108.64 99.479 108.64 100.308Z" fill="#FFDEC7"/>
<path d="M149.332 97.2583C149.332 98.538 150.404 99.5756 151.726 99.5756C153.047 99.5756 154.119 98.538 154.119 97.2583C154.119 95.9786 153.047 94.941 151.726 94.941C150.404 94.9398 149.332 95.9774 149.332 97.2583Z" fill="#FFDEC7"/>
<path d="M145.112 37.186L127.034 73.5955L134.34 73.9617L151.286 40.1139C152.041 38.7114 151.223 36.8819 149.459 36.0888C147.821 35.2349 145.868 35.7835 145.112 37.186Z" fill="#7A4826"/>
<path d="M134.341 75.7911H134.215L126.908 75.425C126.216 75.3642 125.712 75.0589 125.397 74.5103C125.081 73.9617 125.081 73.3522 125.334 72.7416L143.412 36.3321C143.979 35.2957 144.861 34.4418 146.121 34.0757C147.444 33.6487 149.018 33.7704 150.341 34.3202C152.924 35.5402 154.183 38.4669 153.05 40.7854L135.979 74.6927C135.727 75.425 135.097 75.7911 134.341 75.7911ZM129.995 71.8269L133.145 72.0105L149.586 39.2612C149.774 38.8342 149.523 38.1032 148.704 37.6762C148.263 37.4925 147.759 37.4329 147.381 37.5546C147.255 37.6154 147.003 37.7382 146.94 37.9207L129.995 71.8269Z" fill="#4C2F1B"/>
<path d="M124.137 44.0782L125.019 77.0112L131.318 74.5723L130.562 43.8337C130.562 42.5528 129.617 40.418 127.286 40.6625C124.956 40.9058 124.074 42.7365 124.137 44.0782Z" fill="#7A4826"/>
<path d="M125.019 78.8407C124.703 78.8407 124.263 78.719 123.948 78.5354C123.382 78.23 123.066 77.6206 123.066 77.072L122.184 44.139C122.121 41.8218 123.696 39.1992 127.035 38.8939C128.358 38.7722 129.618 39.0775 130.563 39.9315C131.823 41.0287 132.39 42.7365 132.39 43.8945L133.145 74.6319C133.145 75.425 132.704 76.0953 131.949 76.4006L125.648 78.8407C125.46 78.7787 125.207 78.8407 125.019 78.8407ZM126.026 44.0174L126.845 74.3278L129.303 73.3522L128.609 43.8945C128.609 43.5284 128.421 42.919 128.043 42.6745C127.917 42.6137 127.79 42.492 127.413 42.5528C126.152 42.6745 126.026 43.7121 126.026 44.0174Z" fill="#4C2F1B"/>
<path d="M88.8623 52.3108L104.294 78.595H116.388L124.515 71.0934L108.893 47.2494L88.8623 52.3108Z" fill="#6D5030"/>
<path d="M116.388 80.3648H104.294C103.602 80.3648 102.972 80.0595 102.593 79.4501L87.0983 53.2256C86.847 52.677 86.783 52.1272 86.9727 51.5786C87.1624 51.03 87.6662 50.6638 88.2328 50.4802L108.326 45.4187C109.145 45.235 110.027 45.5415 110.404 46.2118L126.089 70.057C126.53 70.7893 126.404 71.8257 125.838 72.3743L117.711 79.8758C117.397 80.1824 116.892 80.3648 116.388 80.3648ZM105.492 76.7059H115.696L122.057 70.7905L108.011 49.3841L91.7595 53.5309L105.492 76.7059Z" fill="#4C2F1B"/>
<path d="M95.1606 54.9942L97.8065 59.6896L109.9 56.5184L106.939 51.9447L95.1606 54.9942Z" fill="#562D20"/>
<path d="M97.8065 60.9096C97.3655 60.9096 96.9245 60.6651 96.672 60.2382L93.9632 55.4808C93.7735 55.1767 93.7735 54.7498 93.9004 54.3836C94.026 54.0783 94.3414 53.7742 94.7824 53.6525L106.561 50.603C107.128 50.4814 107.696 50.6638 107.947 51.1516L110.907 55.7253C111.097 56.0306 111.159 56.4564 111.033 56.8225C110.907 57.1887 110.592 57.494 110.151 57.5548L98.1822 60.726C98.1218 60.9096 97.9321 60.9096 97.8065 60.9096ZM97.0514 55.7265L98.4372 58.2274L107.822 55.7265L106.248 53.3472L97.0514 55.7265Z" fill="#4C2F1B"/>
<path d="M100.578 63.4105L103.35 68.1071L115.318 64.9359L112.358 60.3622L100.578 63.4105Z" fill="#562D20"/>
<path d="M103.35 69.3868C102.909 69.3868 102.468 69.1423 102.216 68.7153L99.5076 63.9592C99.3179 63.6539 99.3179 63.1661 99.4448 62.8608C99.5705 62.5554 99.8858 62.2513 100.327 62.1297L112.044 59.0802C112.61 58.9585 113.177 59.141 113.43 59.6288L116.39 64.2025C116.578 64.5078 116.641 64.9335 116.515 65.2997C116.39 65.6658 116.074 65.9711 115.633 66.0319L103.665 69.2031C103.538 69.3868 103.413 69.3868 103.35 69.3868ZM102.531 64.2036L103.916 66.7046L113.303 64.2036L111.791 61.8256L102.531 64.2036Z" fill="#4C2F1B"/>
<path d="M105.114 71.5215L107.885 76.2789L119.854 73.0457L116.894 68.5328L105.114 71.5215Z" fill="#562D20"/>
<path d="M107.885 77.5598C107.444 77.5598 107.003 77.3153 106.752 76.8883L104.043 72.1322C103.853 71.8269 103.853 71.3999 103.98 71.0338C104.106 70.7285 104.421 70.4243 104.862 70.3027L116.641 67.2532C117.208 67.1315 117.775 67.314 118.027 67.8018L120.987 72.3755C121.177 72.6808 121.239 73.1065 121.112 73.4727C120.987 73.8388 120.672 74.1441 120.231 74.2049L108.262 77.3761C108.074 77.5598 107.948 77.5598 107.885 77.5598ZM107.066 72.3755L108.452 74.8764L117.837 72.3755L116.326 69.9366L107.066 72.3755Z" fill="#4C2F1B"/>
<path d="M144.735 75.4858C144.735 82.4376 138.877 81.889 131.759 81.889C124.578 81.889 118.783 82.4376 118.783 75.4858C118.783 68.5329 124.642 62.9228 131.759 62.9228C138.877 62.862 144.735 68.5341 144.735 75.4858Z" fill="#FBFFA6"/>
<path d="M129.05 83.7793C124.83 83.7793 121.302 83.5968 118.909 81.4012C117.523 80.0595 116.767 78.1084 116.767 75.4858C116.767 67.4965 123.444 61.0933 131.632 61.0933C139.884 61.0933 146.498 67.5585 146.498 75.4858C146.498 78.1084 145.804 79.9379 144.356 81.4012C141.835 83.8401 137.742 83.8401 132.954 83.7793H129.05ZM131.695 80.0595H133.081C136.986 80.0595 140.388 80.1203 141.774 78.7178C142.467 78.0476 142.781 77.01 142.781 75.4858C142.781 69.5704 137.805 64.8131 131.758 64.8131C125.711 64.8131 120.734 69.5704 120.734 75.4858C120.734 77.0708 121.05 78.1084 121.742 78.7178C123.128 80.0595 126.592 80.0595 130.435 80.0595H131.695Z" fill="#4C2F1B"/>
<path d="M131.003 79.5717C131.003 85.548 126.026 85.0602 119.854 85.0602C113.681 85.0602 108.767 85.4871 108.767 79.5717C108.767 73.6563 113.744 68.7773 119.916 68.7773C126.089 68.7773 131.003 73.5955 131.003 79.5717Z" fill="#FF64A3"/>
<path d="M122.121 86.8909H118.72C114.563 86.8909 111.035 86.9517 108.767 84.7561C107.507 83.536 106.878 81.8294 106.878 79.5718C106.878 72.5591 112.736 66.9479 119.854 66.9479C126.971 66.9479 132.892 72.6188 132.892 79.5718C132.892 81.8282 132.263 83.536 131.003 84.7561C128.986 86.768 125.838 86.8909 122.121 86.8909ZM119.854 83.1699H121.051C124.201 83.1699 127.162 83.1699 128.295 82.0715C128.862 81.5229 129.114 80.7298 129.114 79.4489C129.114 74.5091 124.957 70.5448 119.918 70.5448C114.815 70.5448 110.721 74.5699 110.721 79.4489C110.721 80.669 110.972 81.5229 111.54 82.0715C112.673 83.1699 115.635 83.1699 118.783 83.1699H119.854Z" fill="#4C2F1B"/>
<path d="M135.601 72.4363C135.601 73.8173 136.758 74.9372 138.184 74.9372C139.611 74.9372 140.767 73.8173 140.767 72.4363C140.767 71.0552 139.611 69.9354 138.184 69.9354C136.757 69.9366 135.601 71.0552 135.601 72.4363Z" fill="white"/>
<path d="M120.736 76.2789C120.736 77.1281 121.204 77.914 121.964 78.3386C122.724 78.7644 123.66 78.7644 124.42 78.3386C125.18 77.914 125.648 77.1293 125.648 76.2789C125.648 75.4286 125.18 74.6439 124.42 74.2193C123.66 73.7947 122.724 73.7947 121.964 74.2193C121.204 74.6439 120.736 75.4286 120.736 76.2789Z" fill="white"/>
</g>
<defs>
<clipPath id="clip0_101_2">
<rect width="49.4888" height="54.2169" fill="white" transform="translate(25.8554 91.8313)"/>
</clipPath>
<clipPath id="clip1_101_2">
<rect width="91.0843" height="102.47" fill="white" transform="translate(75.1928 33.8193)"/>
</clipPath>
</defs>
</svg>
