<svg width="44" height="44" viewBox="0 0 44 44" fill="none" xmlns="http://www.w3.org/2000/svg">
<path d="M9.16667 33V39.9043L11.9442 38.2378L20.6745 33H29.3333C31.3555 33 33 31.3555 33 29.3333V14.6667C33 12.6445 31.3555 11 29.3333 11H7.33334C5.31117 11 3.66667 12.6445 3.66667 14.6667V29.3333C3.66667 31.3555 5.31117 33 7.33334 33H9.16667ZM7.33334 14.6667H29.3333V29.3333H19.6588L12.8333 33.429V29.3333H7.33334V14.6667Z" fill="#2D76DB"/>
<path d="M36.6667 3.66666H14.6667C12.6445 3.66666 11 5.31116 11 7.33333H33C35.0222 7.33333 36.6667 8.97783 36.6667 11V25.6667C38.6888 25.6667 40.3333 24.0222 40.3333 22V7.33333C40.3333 5.31116 38.6888 3.66666 36.6667 3.66666Z" fill="#2D76DB"/>
</svg>
