<svg width="44" height="44" viewBox="0 0 44 44" fill="none" xmlns="http://www.w3.org/2000/svg">
<path d="M35.75 24.882L22 38.5L8.24999 24.882H35.75ZM8.24999 24.882C7.34305 23.9995 6.62867 22.9387 6.15183 21.7665C5.67499 20.5943 5.44602 19.3361 5.47934 18.071C5.51267 16.806 5.80756 15.5616 6.34545 14.4161C6.88334 13.2707 7.65257 12.249 8.60472 11.4154C9.55686 10.5818 10.6713 9.95443 11.8778 9.57271C13.0843 9.191 14.3568 9.06324 15.6152 9.19747C16.8735 9.3317 18.0904 9.72502 19.1893 10.3527C20.2881 10.9803 21.2451 11.8287 22 12.8443C22.7581 11.836 23.7162 10.9951 24.8143 10.3741C25.9124 9.75313 27.1269 9.36549 28.3817 9.23545C29.6365 9.10541 30.9046 9.23578 32.1067 9.61838C33.3088 10.001 34.419 10.6276 35.3678 11.459C36.3166 12.2904 37.0836 13.3087 37.6208 14.4501C38.1579 15.5916 38.4537 16.8316 38.4896 18.0926C38.5254 19.3536 38.3006 20.6085 37.8292 21.7786C37.3578 22.9488 36.65 24.009 35.75 24.893" fill="#2D76DB"/>
<path d="M8.24999 24.882C7.34305 23.9995 6.62867 22.9387 6.15183 21.7665C5.67499 20.5943 5.44602 19.3361 5.47934 18.071C5.51267 16.806 5.80756 15.5616 6.34545 14.4161C6.88334 13.2707 7.65257 12.249 8.60472 11.4154C9.55686 10.5818 10.6713 9.95443 11.8778 9.57271C13.0843 9.191 14.3568 9.06324 15.6152 9.19747C16.8735 9.3317 18.0904 9.72502 19.1893 10.3527C20.2881 10.9803 21.2451 11.8287 22 12.8443C22.7581 11.836 23.7162 10.9951 24.8143 10.3741C25.9124 9.75313 27.1269 9.36549 28.3817 9.23545C29.6365 9.10541 30.9046 9.23578 32.1067 9.61838C33.3088 10.001 34.419 10.6276 35.3678 11.459C36.3166 12.2904 37.0836 13.3087 37.6208 14.4501C38.1579 15.5916 38.4537 16.8316 38.4896 18.0926C38.5254 19.3536 38.3006 20.6085 37.8292 21.7786C37.3578 22.9488 36.65 24.009 35.75 24.893M35.75 24.882L22 38.5L8.24999 24.882H35.75Z" stroke="#2D76DB" stroke-width="2.75" stroke-linecap="round" stroke-linejoin="round"/>
</svg>
