<svg width="44" height="44" viewBox="0 0 44 44" fill="none" xmlns="http://www.w3.org/2000/svg">
<path d="M9.16667 7.33333H16.5L20.1667 16.5L15.5833 19.25C17.5468 23.2311 20.7689 26.4532 24.75 28.4167L27.5 23.8333L36.6667 27.5V34.8333C36.6667 35.8058 36.2804 36.7384 35.5927 37.4261C34.9051 38.1137 33.9725 38.5 33 38.5C25.8487 38.0654 19.1036 35.0286 14.0375 29.9625C8.97142 24.8964 5.93459 18.1513 5.5 11C5.5 10.0275 5.88631 9.09491 6.57394 8.40727C7.26158 7.71964 8.19421 7.33333 9.16667 7.33333" stroke="#2D76DB" stroke-width="2.75" stroke-linecap="round" stroke-linejoin="round"/>
<path d="M27.5 12.8333C28.4725 12.8333 29.4051 13.2196 30.0927 13.9073C30.7804 14.5949 31.1667 15.5275 31.1667 16.5" stroke="#2D76DB" stroke-width="2.75" stroke-linecap="round" stroke-linejoin="round"/>
<path d="M27.5 5.5C30.4174 5.5 33.2153 6.65893 35.2782 8.72183C37.3411 10.7847 38.5 13.5826 38.5 16.5" stroke="#2D76DB" stroke-width="2.75" stroke-linecap="round" stroke-linejoin="round"/>
</svg>
