<svg width="44" height="44" viewBox="0 0 44 44" fill="none" xmlns="http://www.w3.org/2000/svg">
<path d="M21.0687 39.9135C21.6077 40.2013 22.2842 40.2013 22.8232 39.9117C37.5118 32.021 38.555 16.6045 38.5422 12.221C38.5408 11.8687 38.4367 11.5244 38.2426 11.2304C38.0485 10.9363 37.7729 10.7053 37.4495 10.5655L22.6893 4.02967C22.4545 3.92614 22.2006 3.87282 21.9439 3.87314C21.6872 3.87346 21.4335 3.9274 21.1988 4.0315L6.54501 10.5692C6.22638 10.7085 5.9546 10.9367 5.76214 11.2263C5.56968 11.516 5.46468 11.8549 5.45968 12.2027C5.39735 16.5642 6.27551 32.0137 21.0687 39.9135V39.9135ZM15.2038 17.7962L17.7962 15.2038L22 19.4077L26.2038 15.2038L28.7962 17.7962L24.5923 22L28.7962 26.2038L26.2038 28.7962L22 24.5923L17.7962 28.7962L15.2038 26.2038L19.4077 22L15.2038 17.7962Z" fill="#2D76DB"/>
</svg>
