<svg width="44" height="44" viewBox="0 0 44 44" fill="none" xmlns="http://www.w3.org/2000/svg">
<path d="M16.5 22L20.1667 25.6667L27.5 18.3333" stroke="#2D76DB" stroke-width="2.75" stroke-linecap="round" stroke-linejoin="round"/>
<path d="M22 5.5C26.2824 9.28872 31.8715 11.2614 37.5833 11C38.4149 13.8289 38.6694 16.796 38.3316 19.7252C37.9938 22.6543 37.0706 25.4857 35.6169 28.051C34.1632 30.6163 32.2087 32.8632 29.8695 34.6582C27.5303 36.4532 24.8541 37.7597 22 38.5C19.1459 37.7597 16.4697 36.4532 14.1305 34.6582C11.7913 32.8632 9.83676 30.6163 8.38309 28.051C6.92941 25.4857 6.00624 22.6543 5.66843 19.7252C5.33063 16.796 5.58508 13.8289 6.41666 11C12.1285 11.2614 17.7176 9.28872 22 5.5" stroke="#2D76DB" stroke-width="2.75" stroke-linecap="round" stroke-linejoin="round"/>
</svg>
