<svg width="44" height="44" viewBox="0 0 44 44" fill="none" xmlns="http://www.w3.org/2000/svg">
<path d="M40.2362 16.8282C40.1209 16.4888 39.9088 16.1905 39.626 15.9703C39.3432 15.75 39.0021 15.6174 38.6448 15.5888L28.193 14.7583L23.6702 4.7465C23.5261 4.42404 23.2918 4.15015 22.9956 3.9579C22.6993 3.76565 22.3538 3.66325 22.0006 3.66306C21.6474 3.66286 21.3018 3.76488 21.0053 3.95681C20.7088 4.14873 20.4742 4.42236 20.3298 4.74466L15.807 14.7583L5.35517 15.5888C5.00401 15.6166 4.66829 15.745 4.38819 15.9587C4.10809 16.1723 3.89546 16.4621 3.77574 16.7934C3.65603 17.1247 3.63429 17.4835 3.71314 17.8268C3.79199 18.1701 3.96808 18.4835 4.22034 18.7293L11.9442 26.2588L9.21251 38.0875C9.12956 38.4455 9.15615 38.8203 9.28881 39.163C9.42147 39.5058 9.65409 39.8007 9.95648 40.0096C10.2589 40.2185 10.6171 40.3317 10.9846 40.3345C11.3521 40.3373 11.712 40.2296 12.0175 40.0253L22 33.3703L31.9825 40.0253C32.2948 40.2327 32.6631 40.3394 33.0378 40.3312C33.4126 40.323 33.7758 40.2002 34.0787 39.9794C34.3816 39.7585 34.6096 39.4502 34.7321 39.096C34.8545 38.7417 34.8656 38.3584 34.7637 37.9977L31.4105 26.2643L39.7265 18.7807C40.271 18.2893 40.4708 17.523 40.2362 16.8282V16.8282Z" fill="#FECF36"/>
</svg>
