<svg width="44" height="44" viewBox="0 0 44 44" fill="none" xmlns="http://www.w3.org/2000/svg">
<path d="M16.5 20.1667C20.5501 20.1667 23.8334 16.8834 23.8334 12.8333C23.8334 8.78325 20.5501 5.5 16.5 5.5C12.4499 5.5 9.16669 8.78325 9.16669 12.8333C9.16669 16.8834 12.4499 20.1667 16.5 20.1667Z" stroke="#2D76DB" stroke-width="2.75" stroke-linecap="round" stroke-linejoin="round"/>
<path d="M5.5 38.5V34.8333C5.5 32.8884 6.27262 31.0232 7.64788 29.6479C9.02315 28.2726 10.8884 27.5 12.8333 27.5H20.1667C22.1116 27.5 23.9769 28.2726 25.3521 29.6479C26.7274 31.0232 27.5 32.8884 27.5 34.8333V38.5" stroke="#2D76DB" stroke-width="2.75" stroke-linecap="round" stroke-linejoin="round"/>
<path d="M29.3333 5.73834C30.9107 6.14223 32.3089 7.05963 33.3073 8.34591C34.3058 9.6322 34.8477 11.2142 34.8477 12.8425C34.8477 14.4708 34.3058 16.0528 33.3073 17.3391C32.3089 18.6254 30.9107 19.5428 29.3333 19.9467" stroke="#2D76DB" stroke-width="2.75" stroke-linecap="round" stroke-linejoin="round"/>
<path d="M38.5 38.5V34.8333C38.4907 33.2148 37.9462 31.6448 36.9513 30.3681C35.9565 29.0913 34.5672 28.1796 33 27.775" stroke="#2D76DB" stroke-width="2.75" stroke-linecap="round" stroke-linejoin="round"/>
</svg>
